<svg width="26" height="27" viewBox="0 0 26 27" fill="none" xmlns="http://www.w3.org/2000/svg">
<g clip-path="url(#clip0_18_934)">
<path d="M24.4617 6.44595L20.2223 2.18484C19.9421 1.9061 19.563 1.74963 19.1678 1.74963C18.7726 1.74963 18.3935 1.9061 18.1134 2.18484L3.08393 17.1926L1.71171 23.1148C1.66437 23.3313 1.66599 23.5557 1.71646 23.7714C1.76692 23.9872 1.86495 24.189 2.00339 24.3621C2.14182 24.5351 2.31717 24.675 2.51661 24.7716C2.71605 24.8682 2.93455 24.9191 3.15615 24.9204C3.25941 24.9308 3.36345 24.9308 3.46671 24.9204L9.45393 23.5482L24.4617 8.55484C24.7404 8.27469 24.8969 7.89558 24.8969 7.50039C24.8969 7.1052 24.7404 6.72609 24.4617 6.44595ZM8.73171 22.2482L3.12004 23.4254L4.39837 17.9221L15.6434 6.72039L19.9767 11.0537L8.73171 22.2482ZM20.9445 10.0065L16.6112 5.67317L19.1245 3.17428L23.3856 7.50761L20.9445 10.0065Z" fill="black" fill-opacity="0.38"/>
</g>
<defs>
<clipPath id="clip0_18_934">
<rect width="26" height="26" fill="white" transform="translate(0 0.437012)"/>
</clipPath>
</defs>
</svg>
